<?xml version="1.0" standalone="no"?>
<!DOCTYPE svg PUBLIC "-//W3C//DTD SVG 20010904//EN"
 "http://www.w3.org/TR/2001/REC-SVG-20010904/DTD/svg10.dtd">
<svg version="1.0" xmlns="http://www.w3.org/2000/svg"
 width="300.000000pt" height="269.000000pt" viewBox="0 0 300.000000 269.000000"
 preserveAspectRatio="xMidYMid meet">
<metadata>
Created by potrace 1.10, written by Peter Selinger 2001-2011
</metadata>
<g transform="translate(0.000000,269.000000) scale(0.100000,-0.100000)"
fill="#FFFFFF" stroke="none">
<path d="M1265 2434 c-179 -32 -361 -107 -413 -170 -35 -43 -57 -111 -49 -157
5 -31 2 -35 -41 -62 -80 -51 -239 -212 -303 -309 -131 -195 -189 -359 -210
-590 -14 -160 0 -274 63 -525 16 -61 86 -133 154 -157 49 -17 52 -20 57 -57
18 -135 191 -204 296 -119 75 61 76 63 79 385 4 313 -2 369 -45 425 -98 130
-312 70 -331 -93 -4 -36 -8 -45 -24 -45 -26 0 -77 -27 -110 -57 l-26 -25 -8
58 c-20 161 18 398 90 564 69 160 217 347 350 442 l49 35 33 -33 c68 -67 163
-72 282 -14 115 55 188 73 307 73 113 1 193 -19 317 -78 109 -52 200 -45 270
22 l27 26 64 -51 c192 -153 332 -370 392 -608 28 -107 41 -269 31 -367 l-8
-67 -36 29 c-20 16 -56 35 -79 42 -40 11 -43 15 -43 46 0 41 -19 79 -57 114
-43 40 -72 52 -129 52 -62 0 -104 -22 -148 -76 l-31 -39 0 -343 0 -343 31 -39
c17 -21 46 -46 65 -55 41 -22 129 -24 167 -4 59 31 102 96 102 154 0 24 7 30
51 45 64 23 131 88 152 148 78 223 91 523 33 752 -66 257 -230 504 -437 658
-67 50 -68 50 -67 98 1 128 -76 199 -290 271 -176 59 -398 76 -577 44z m375
-38 c52 -8 133 -27 180 -42 193 -61 270 -126 270 -229 0 -58 16 -81 112 -158
223 -181 362 -416 413 -700 28 -154 17 -383 -24 -542 -36 -138 -61 -176 -138
-215 -71 -36 -79 -45 -92 -96 -6 -25 -26 -61 -45 -81 -28 -31 -40 -37 -87 -40
-63 -5 -107 17 -139 69 -19 31 -20 51 -20 341 0 330 1 337 53 385 28 26 80 37
130 28 48 -9 93 -57 107 -116 14 -58 16 -60 117 -111 l77 -40 25 26 c26 25 26
27 26 178 -1 164 -17 257 -72 402 -68 182 -207 370 -363 494 -73 57 -90 60
-151 21 -79 -51 -127 -52 -236 -2 -127 59 -199 76 -323 76 -118 0 -197 -19
-322 -79 -104 -50 -167 -45 -251 19 -19 15 -41 26 -49 26 -9 0 -44 -21 -78
-46 -196 -144 -349 -377 -417 -634 -34 -128 -45 -378 -19 -429 9 -17 24 -35
31 -38 8 -3 53 13 99 36 87 42 89 44 116 134 14 44 60 83 111 92 51 9 122 -23
149 -67 19 -31 20 -49 20 -348 0 -295 -1 -317 -20 -347 -40 -67 -118 -90 -187
-55 -46 24 -67 52 -82 109 -13 47 -31 65 -89 88 -23 10 -59 36 -80 60 -33 37
-41 57 -67 171 -28 120 -30 142 -30 324 1 167 4 206 22 270 75 268 207 473
408 635 105 85 115 97 115 152 1 53 31 115 72 146 67 52 252 115 393 136 94
14 231 12 335 -3z"/>
<path d="M460 871 c-55 -29 -91 -87 -97 -157 -4 -53 -2 -64 26 -107 29 -44 81
-87 108 -87 7 0 21 10 33 22 18 20 20 35 20 165 0 130 -2 145 -20 163 -24 24
-27 25 -70 1z m55 -165 l0 -155 -39 22 c-53 30 -78 78 -73 140 5 54 28 91 77
125 18 12 33 22 34 22 1 0 1 -69 1 -154z"/>
<path d="M2392 867 c-20 -22 -22 -33 -22 -158 0 -106 3 -139 16 -157 46 -66
174 41 174 147 0 73 -41 145 -102 177 -36 19 -41 18 -66 -9z m101 -72 c17 -23
22 -44 22 -93 0 -62 -1 -65 -42 -103 -23 -21 -47 -39 -53 -39 -6 0 -10 53 -10
151 l0 150 31 -18 c17 -10 41 -31 52 -48z"/>
<path d="M1033 1588 c-42 -46 -57 -90 -58 -163 0 -82 32 -159 78 -185 25 -14
28 -13 56 14 71 68 83 210 25 302 -35 58 -68 68 -101 32z m71 -61 c27 -37 35
-151 13 -194 -26 -50 -42 -58 -66 -32 -50 54 -53 164 -6 236 19 29 32 26 59
-10z"/>
<path d="M1807 1582 c-76 -79 -74 -245 5 -329 30 -32 52 -29 86 13 72 87 68
241 -8 322 -28 29 -51 28 -83 -6z m76 -54 c30 -40 34 -134 9 -191 -28 -63 -55
-64 -82 -4 -31 67 -23 163 18 210 19 21 30 18 55 -15z"/>
<path d="M1826 964 c-110 -129 -182 -177 -300 -197 -82 -14 -176 0 -249 38
-62 31 -89 54 -141 118 -28 35 -45 47 -65 47 -131 0 15 -207 196 -279 213 -84
476 -10 609 172 49 66 55 98 22 121 -31 22 -37 21 -72 -20z m44 -34 c0 -19
-86 -114 -133 -146 -141 -97 -344 -110 -506 -32 -51 24 -161 128 -161 152 0
26 13 19 57 -33 88 -101 217 -156 356 -149 134 6 243 62 332 169 39 48 55 59
55 39z"/>
</g>
</svg>
