<?xml version="1.0" standalone="no"?>
<!DOCTYPE svg PUBLIC "-//W3C//DTD SVG 20010904//EN"
 "http://www.w3.org/TR/2001/REC-SVG-20010904/DTD/svg10.dtd">
<svg version="1.0" xmlns="http://www.w3.org/2000/svg"
 width="300.000000pt" height="85.000000pt" viewBox="0 0 300.000000 85.000000"
 preserveAspectRatio="xMidYMid meet">
<metadata>
Created by potrace 1.10, written by Peter Selinger 2001-2011
</metadata>
<g transform="translate(0.000000,85.000000) scale(0.100000,-0.100000)"
fill="#FFFFFF" stroke="none">
<path d="M340 750 c-54 -18 -90 -49 -90 -77 0 -7 -24 -37 -53 -66 -30 -29 -66
-79 -83 -112 -27 -55 -29 -69 -29 -170 0 -121 12 -155 61 -177 13 -6 24 -19
24 -29 0 -36 66 -52 94 -23 13 12 16 39 16 128 0 97 -3 115 -18 129 -33 30
-92 12 -92 -28 0 -8 -14 -22 -31 -31 l-32 -16 5 71 c6 87 48 177 107 235 40
39 40 39 72 23 30 -14 36 -14 81 4 62 24 131 24 187 -1 40 -19 46 -19 74 -5
30 15 31 15 73 -26 61 -60 96 -138 102 -227 l5 -73 -27 12 c-14 7 -26 18 -26
26 0 20 -37 53 -60 53 -11 0 -29 -9 -40 -20 -18 -18 -20 -33 -20 -128 0 -119
10 -142 62 -142 25 0 58 27 58 49 0 6 11 16 24 22 29 14 42 40 56 118 22 125
-21 254 -115 340 -33 29 -55 58 -55 70 0 75 -197 117 -330 71z m248 -44 c37
-19 50 -42 33 -59 -9 -9 -23 -7 -60 6 -61 21 -138 22 -191 1 -48 -19 -73 -13
-68 18 7 53 205 76 286 34z m-350 -476 c3 -85 -6 -112 -30 -92 -15 12 -17 149
-4 171 19 30 31 1 34 -79z m479 78 c14 -18 11 -154 -4 -169 -22 -22 -33 2 -33
76 0 97 11 126 37 93z m-552 -83 c0 -35 -3 -45 -15 -43 -19 4 -25 54 -9 74 19
23 25 16 24 -31z m626 21 c8 -17 8 -29 0 -45 -19 -34 -31 -24 -31 24 0 49 14
59 31 21z"/>
<path d="M1074 611 c-67 -30 -93 -113 -58 -187 22 -46 89 -78 144 -69 139 24
158 215 27 264 -40 15 -66 13 -113 -8z m119 -73 c40 -47 10 -118 -50 -118 -48
0 -73 24 -73 70 0 71 76 101 123 48z"/>
<path d="M1310 490 l0 -136 35 4 c34 4 35 5 35 48 l0 44 43 0 c57 0 87 30 87
86 0 63 -27 82 -123 86 l-77 3 0 -135z m131 64 c18 -21 0 -48 -35 -52 -24 -3
-26 0 -26 32 0 31 3 36 24 36 13 0 29 -7 37 -16z"/>
<path d="M2083 622 l-33 -3 0 -129 0 -128 35 -4 35 -4 0 53 0 53 50 0 50 0 0
-53 0 -53 35 4 35 4 0 128 0 128 -35 4 -35 4 0 -53 0 -53 -50 0 -49 0 -3 53
-3 52 -32 -3z"/>
<path d="M1540 490 l0 -130 85 0 85 0 0 30 c0 29 -1 30 -50 30 -43 0 -50 3
-50 20 0 17 7 20 45 20 43 0 45 1 45 30 0 29 -2 30 -45 30 -41 0 -45 2 -45 24
0 22 3 23 50 18 l50 -5 0 32 0 31 -85 0 -85 0 0 -130z"/>
<path d="M1750 490 l0 -130 36 0 37 0 -5 86 c-5 99 -4 98 60 -18 37 -67 37
-68 80 -68 l42 0 0 130 0 130 -36 0 -37 0 5 -85 c2 -47 3 -85 2 -85 -2 0 -24
38 -51 85 l-48 84 -42 1 -43 0 0 -130z"/>
<path d="M2340 490 l0 -130 80 0 80 0 0 30 c0 29 -2 30 -45 30 -38 0 -45 3
-45 20 0 17 7 20 40 20 38 0 40 2 40 30 0 28 -2 30 -40 30 -35 0 -40 3 -40 23
0 20 4 22 45 19 44 -4 45 -4 45 27 l0 31 -80 0 -80 0 0 -130z"/>
<path d="M2540 490 l0 -130 75 0 75 0 0 30 c0 28 -2 30 -40 30 l-40 0 0 100 0
100 -35 0 -35 0 0 -130z"/>
<path d="M2720 490 l0 -130 36 0 37 0 -6 45 -7 45 46 0 c58 0 94 32 94 85 0
25 -8 44 -25 60 -21 22 -33 25 -100 25 l-75 0 0 -130z m131 64 c19 -23 -1 -48
-40 -52 -30 -3 -31 -2 -31 32 0 33 2 36 29 36 16 0 34 -7 42 -16z"/>
<path d="M322 498 c-18 -18 -15 -83 4 -99 32 -26 58 46 34 92 -12 22 -21 24
-38 7z"/>
<path d="M560 481 c-15 -38 -1 -86 25 -86 26 0 40 48 25 86 -7 16 -18 29 -25
29 -7 0 -18 -13 -25 -29z"/>
<path d="M558 286 c-20 -19 -48 -38 -62 -42 -44 -11 -97 5 -128 38 -35 38 -60
26 -33 -15 52 -80 207 -75 261 8 28 43 3 51 -38 11z"/>
<path d="M1200 265 c-16 -19 -6 -45 19 -45 23 0 35 28 20 46 -15 18 -24 18
-39 -1z"/>
<path d="M1267 273 c-8 -8 -9 -53 -1 -53 14 0 35 32 30 45 -6 16 -18 19 -29 8z"/>
<path d="M1320 250 c0 -22 5 -30 18 -30 14 0 15 2 2 10 -13 9 -13 10 0 10 13
0 13 1 0 10 -10 6 -11 10 -2 10 6 0 12 5 12 10 0 6 -7 10 -15 10 -10 0 -15
-10 -15 -30z"/>
<path d="M1402 261 c-10 -16 -11 -26 -3 -34 15 -15 23 -3 19 30 l-3 28 -13
-24z"/>
<path d="M1466 253 c7 -30 12 -39 18 -32 2 2 6 16 10 32 5 23 3 27 -14 27 -17
0 -19 -4 -14 -27z"/>
<path d="M1522 271 c-20 -12 -10 -46 14 -49 25 -4 40 24 23 44 -13 16 -19 17
-37 5z"/>
<path d="M1616 252 c-15 -28 -14 -29 14 -29 26 0 27 2 18 29 -6 15 -12 28 -14
28 -2 0 -10 -13 -18 -28z"/>
<path d="M1670 251 c0 -20 5 -31 14 -31 9 0 12 8 8 25 -7 37 -22 41 -22 6z"/>
<path d="M1718 274 c-5 -4 -8 -18 -8 -31 0 -17 6 -23 23 -23 13 0 17 3 11 8
-7 4 -14 18 -15 30 -2 13 -7 20 -11 16z"/>
<path d="M1820 250 c0 -16 5 -30 11 -30 5 0 7 5 4 10 -3 6 -2 10 2 10 5 0 9 9
10 20 1 11 -4 20 -13 20 -9 0 -14 -11 -14 -30z"/>
<path d="M1870 248 c0 -25 3 -29 10 -18 6 10 10 11 10 3 0 -7 4 -13 8 -13 12
0 10 44 -2 52 -20 14 -26 8 -26 -24z"/>
<path d="M1930 250 c0 -22 5 -30 18 -30 14 0 15 2 2 10 -13 9 -13 10 0 10 13
0 13 1 0 10 -10 6 -11 10 -2 10 6 0 12 5 12 10 0 6 -7 10 -15 10 -10 0 -15
-10 -15 -30z"/>
<path d="M1980 250 c0 -22 5 -30 18 -30 14 0 15 2 2 10 -13 9 -13 10 0 10 13
0 13 1 0 10 -10 6 -11 10 -2 10 6 0 12 5 12 10 0 6 -7 10 -15 10 -10 0 -15
-10 -15 -30z"/>
<path d="M2057 273 c-8 -8 -9 -53 -1 -53 3 0 12 6 20 14 11 11 11 16 1 19 -9
4 -9 6 1 6 6 1 12 6 12 11 0 11 -23 14 -33 3z"/>
<path d="M2110 265 c-16 -20 -6 -45 19 -45 23 0 32 18 19 43 -11 21 -22 22
-38 2z"/>
<path d="M2177 274 c-4 -4 -7 -18 -7 -30 0 -17 5 -22 20 -21 23 1 25 8 8 26
-11 11 -10 12 1 6 9 -5 12 -3 9 5 -5 16 -22 23 -31 14z"/>
<path d="M2260 250 c0 -22 5 -30 18 -30 14 0 15 2 2 10 -13 9 -13 10 0 10 13
0 13 1 0 10 -10 6 -11 10 -2 10 6 0 12 5 12 10 0 6 -7 10 -15 10 -10 0 -15
-10 -15 -30z"/>
<path d="M2306 260 c7 -27 21 -46 28 -39 2 2 7 18 11 34 5 25 4 27 -5 12 -11
-18 -12 -18 -26 0 -14 17 -15 16 -8 -7z"/>
<path d="M2370 250 c0 -22 5 -30 18 -30 14 0 15 2 2 10 -13 9 -13 10 0 10 13
0 13 1 0 10 -10 6 -11 10 -2 10 6 0 12 5 12 10 0 6 -7 10 -15 10 -10 0 -15
-10 -15 -30z"/>
<path d="M2420 248 c0 -25 3 -29 10 -18 6 10 10 11 10 3 0 -7 4 -13 8 -13 12
0 10 44 -2 52 -20 14 -26 8 -26 -24z"/>
<path d="M2470 272 c0 -6 5 -14 11 -17 6 -4 8 -13 5 -21 -3 -8 -2 -14 3 -14
10 0 24 50 16 58 -3 3 -5 0 -5 -8 0 -10 -3 -10 -15 0 -9 8 -15 9 -15 2z"/>
<path d="M2541 270 c-19 -11 -9 -45 14 -45 13 0 21 8 23 21 3 23 -17 37 -37
24z"/>
<path d="M2670 250 c0 -22 5 -30 18 -30 14 0 15 2 2 10 -13 9 -13 10 0 10 13
0 13 1 0 10 -10 6 -11 10 -2 10 6 0 12 5 12 10 0 6 -7 10 -15 10 -10 0 -15
-10 -15 -30z"/>
<path d="M2626 254 c-7 -18 0 -34 15 -34 5 0 9 11 9 25 0 28 -15 34 -24 9z"/>
</g>
</svg>
